<?xml version="1.0" encoding="utf-8"?>
<!-- Generator: Adobe Illustrator 24.1.0, SVG Export Plug-In . SVG Version: 6.00 Build 0)  -->
<svg version="1.1" id="Layer_1" xmlns="http://www.w3.org/2000/svg" xmlns:xlink="http://www.w3.org/1999/xlink" x="0px" y="0px"
	 viewBox="0 0 388.2 197.6" style="enable-background:new 0 0 388.2 197.6;" xml:space="preserve">
<style type="text/css">
	.st0{fill:#E31837;}
	.st1{fill:#012169;}
</style>
<g>
	<path class="st0" d="M192.8,148.1c43.1-37,103.8-72.9,137-85.9c-5.1-3.3-13.2-8-22.2-13.2c-42.9,14.2-93.1,45.6-137.9,81.2
		C177.3,136,185.4,142,192.8,148.1L192.8,148.1z"/>
	<path class="st1" d="M173,47.7c-6.4-3.1-13.4-6-18.7-8.4c-16.2,8-37.4,20.1-64.1,39.2c5.8,3.1,11.9,6.8,18.5,10.5
		C129.3,73.8,150,59.4,173,47.7z"/>
	<path class="st0" d="M211.5,30c-7.8-4.3-34.9-14.4-53.6-18.7c-5.5,2.1-13.4,5.1-18.7,7.4c6.8,1.8,32.1,8.6,53.6,19.5
		C198.3,35.5,206.1,32.3,211.5,30z"/>
	<path class="st1" d="M119.6,27.3c-24,11.1-49.3,26.3-63.1,35.1c4.9,2.3,9.9,4.1,16.6,7.4c30.4-20.5,54.2-33.1,63.7-37.2
		C130.1,30.2,123.7,28.6,119.6,27.3L119.6,27.3z"/>
	<path class="st0" d="M229.5,23.6c5.5-1.8,11.9-3.5,17.5-5.1c-16-6.8-36.2-14-54.2-18.5c-2.9,0.8-11.5,3.1-17.5,4.9
		C181.5,6.8,201.8,11.5,229.5,23.6z M128.2,100.9c6.6,3.9,13.6,9.2,20.3,13.8c45-34.9,89.4-61.8,138.1-77.1
		c-6.8-3.5-12.7-6.6-20.3-10.3C237.1,34.7,187.2,54.7,128.2,100.9z"/>
	<path class="st1" d="M0,197h10.8c5.5,0,8.1-2.8,8.1-6.8c0-3.3-1.7-5.4-5.2-6.1c3.1-0.7,4.5-2.6,4.5-5.4c0-3.5-2.6-6.4-8.1-6.4H0.1
		L0,197L0,197z M9.4,186.5c2,0,3.5,1,3.5,3.1c0,2.2-1.4,3.1-3.5,3.1H5.9v-6.2L9.4,186.5L9.4,186.5z M8.7,176.6c2,0,3.5,0.9,3.5,2.9
		c0,2-1.4,2.9-3.5,2.9H5.9v-5.8H8.7z M40.8,172.2h-6.1L25.4,197h6.2l1.7-5.2h8.9l1.7,5.2h6.2C50.2,197,40.8,172.2,40.8,172.2z
		 M37.8,178.2l2.9,9.2h-6C34.7,187.3,37.8,178.2,37.8,178.2z M81.1,172.2h-5.6v16.6l-10.6-16.6h-6.3V197h5.6v-16.5L74.8,197h6.3
		C81.1,197,81.1,172.2,81.1,172.2z M107.1,197l-8.1-12.6V197h-6v-24.8h6v11.9l7.7-11.9h6.7l-8.1,11.9l8.9,12.9H107.1z M135.5,184.6
		c0,4.9,3,8,6.8,8c3.9,0,6.8-3.1,6.8-8s-3-8-6.8-8S135.5,179.7,135.5,184.6z M129.1,184.6c0.1-7.3,5.2-12.9,13.2-12.9
		s13.2,5.7,13.2,12.9c-0.1,7.3-5.2,12.9-13.2,12.9S129.2,191.9,129.1,184.6z M163.8,197h6v-9.8h7.9v-4.7h-7.9V177h9.5l1.1-4.7h-16.6
		L163.8,197L163.8,197z M208.6,172.2h-6.1l-9.3,24.8h6.2l1.7-5.2h8.9l1.7,5.2h6.2L208.6,172.2L208.6,172.2z M205.5,178.2l2.9,9.2h-6
		L205.5,178.2z M253.7,172.2h-7.1l-6.4,13.4l-6.4-13.4h-7.1V197h5.4v-16.6l8,16.6l8-16.6V197h5.6L253.7,172.2z M265.4,197h17v-4.7
		h-10.9v-5.6h8.6v-4.6h-8.6V177h10l1.1-4.7h-17.1V197z M305.4,197h6.6l-6.2-10.5c3.4-0.9,5-3.3,5-6.8c0-4.5-2.7-7.5-8.8-7.5h-9.6
		v24.8h5.9v-9.8h1.6L305.4,197L305.4,197z M300.8,176.8c2.5,0,3.8,1.1,3.8,3.2s-1.3,3.2-3.8,3.2h-2.6v-6.4
		C298.3,176.8,300.8,176.8,300.8,176.8z M321,197h6v-24.7h-6V197z M356.7,190.4c-2.3,1.6-4.3,2.2-6.4,2.2c-4.6,0-7.9-3.2-7.9-7.9
		c0-4.7,3.2-7.9,7.7-7.9c2,0,4.1,0.5,6.3,2.2v-5.6c-2-1.2-4.4-1.6-7.1-1.6c-8.2,0-13.4,5.7-13.4,12.9c0.1,7.3,5.1,12.9,13.4,12.9
		c2.8,0,5.2-0.5,7.3-1.6L356.7,190.4L356.7,190.4L356.7,190.4z M378.8,172.2h-6.1l-9.3,24.8h6.2l1.7-5.2h8.9l1.7,5.2h6.2
		L378.8,172.2L378.8,172.2z M375.8,178.2l2.9,9.2h-6L375.8,178.2z"/>
</g>
</svg>
