<?xml version="1.0" encoding="UTF-8"?>
<svg width="190px" height="36px" viewBox="0 0 190 36" version="1.1" xmlns="http://www.w3.org/2000/svg" xmlns:xlink="http://www.w3.org/1999/xlink">
    <!-- Generator: Sketch 46.2 (44496) - http://www.bohemiancoding.com/sketch -->
    <title>Chase - Bank</title>
    
    <defs></defs>
    <g id="Page-1" stroke="none" stroke-width="1" fill="none" fill-rule="evenodd">
        <g id="Artboard-Copy">
            <g id="Chase---Bank">
                <path d="M167.221558,0.813886659 C166.536849,0.813886659 165.982224,1.36852231 165.982224,2.05242981 L165.982224,10.7389898 L188.927962,10.7389898 L178.478563,0.814689796 L167.221558,0.813886659" id="logo-ne" fill="#117ACA"></path>
                <path d="M189.767489,13.3668999 C189.767489,12.6813855 189.216849,12.1291484 188.528155,12.1291484 L179.843991,12.1291484 L179.843991,35.0756864 L189.763492,24.6215088 L189.767489,13.3668999" id="logo-se" fill="#117ACA"></path>
                <path d="M177.212894,35.9064352 C177.896008,35.9064352 178.450632,35.3510066 178.450632,34.6655056 L178.450632,25.9821505 L155.50409,25.9821505 L165.955079,35.9048391 L177.212894,35.9064352" id="logo-sw" fill="#117ACA"></path>
                <path d="M154.665367,23.3550308 C154.665367,24.0397421 155.219991,24.5975686 155.906297,24.5975686 L164.588858,24.5975686 L164.588858,1.64943318 L154.666963,12.1004225 L154.665367,23.3550308" id="logo-nw" fill="#117ACA"></path>
                <polyline id="E" fill="#211E1E" points="121.023627 5.00275019 121.023627 31.7112066 144.614185 31.7112066 141.626356 27.0092164 126.415919 27.0092164 126.415919 20.2387273 141.144346 20.2387273 141.144346 15.7099064 126.415919 15.7099064 126.415919 9.59461034 141.600825 9.59461034 144.527991 5.00275019 121.023627 5.00275019"></polyline>
                <path d="M97.4274953,4.98997661 C94.1970653,4.98997661 90.8860406,6.93158124 90.8860406,11.9256585 L90.8860406,13.2088798 C90.8860406,18.4152266 94.071781,20.4015202 97.2591111,20.4150982 L108.446687,20.4150982 C109.608612,20.4150982 110.552681,20.6082124 110.552681,22.5721625 L110.551085,24.8409618 C110.521558,26.6054039 109.641331,27.0092164 108.40678,27.0092164 L93.6887141,27.0092164 L90.6737584,31.7112066 L108.753131,31.7112066 C113.112766,31.7112066 116.072658,29.5421559 116.072658,24.5321295 L116.072658,22.6910702 C116.072658,17.8470372 113.322648,15.5582788 109.058776,15.5582788 L98.3763461,15.5582788 C97.1920638,15.5582788 96.3669076,15.2350775 96.3669076,13.4810105 L96.3669076,11.6335701 C96.3669076,10.1396639 96.9327106,9.59461034 98.3125037,9.59461034 L112.329095,9.58902094 L115.258661,4.98359556 L97.4274953,4.98997661" id="S" fill="#211E1E"></path>
                <path d="M70.4987859,5.00275019 L57.8300667,31.7159884 L63.8176697,31.7159884 L66.2851899,26.1992049 L80.0519914,26.1992049 L82.5115185,31.7159884 L88.5254756,31.7159884 L75.8272293,5.00275019 L70.4987859,5.00275019 L70.4987859,5.00275019 Z M73.15542,10.5490531 L78.0234066,21.6520344 L68.3185564,21.6520344 L73.15542,10.5490531 L73.15542,10.5490531 Z" id="A" fill="#211E1E"></path>
                <polyline id="H" fill="#211E1E" points="49.4906579 5.00275019 49.4906579 15.5997783 34.7271111 15.5997783 34.7271111 5.00275019 29.3499815 4.9979652 29.3499815 31.7175844 34.7271111 31.7175844 34.7271111 20.2387273 49.4906579 20.2387273 49.4906579 31.7175844 54.876553 31.7175844 54.876553 5.00275019 49.4906579 5.00275019"></polyline>
                <path d="M9.36252687,4.99635701 C3.76915048,4.99635701 0.944119465,8.39676223 0.944119465,13.3445551 L0.944119465,23.3183297 C0.944119465,29.044179 4.58472392,31.7175844 9.33460861,31.7175844 L26.2049534,31.7159884 L23.0774692,26.8320539 L10.3768352,26.8320539 C7.67868451,26.8320539 6.50319336,25.8568618 6.50319336,22.8371083 L6.50319336,13.7882595 C6.50319336,10.8690635 7.49275639,9.73027409 10.4486515,9.73027409 L23.2099421,9.73027409 L26.2129273,4.99635701 L9.36252687,4.99635701" id="C" fill="#211E1E"></path>
            </g>
        </g>
    </g>
</svg>