<?xml version="1.0" encoding="UTF-8"?>
<svg width="61px" height="36px" viewBox="0 0 61 36" version="1.1" xmlns="http://www.w3.org/2000/svg" xmlns:xlink="http://www.w3.org/1999/xlink">
    <!-- Generator: Sketch 46.2 (44496) - http://www.bohemiancoding.com/sketch -->
    <title>Navy Federal CU - Bank</title>
    
    <defs></defs>
    <g id="Page-1" stroke="none" stroke-width="1" fill="none" fill-rule="evenodd">
        <g id="Artboard-Copy" fill="#002F54">
            <g id="Navy-Federal-CU---Bank">
                <path d="M6.22077982,32.8254324 C6.00249014,33.7406615 5.44843122,34.4090249 4.36253925,34.4090249 C2.7662463,34.4090249 2.09788296,32.9040167 2.09788296,31.3759889 C2.09788296,29.8471673 2.7662463,28.3413653 4.36253925,28.3413653 C5.52145904,28.3413653 6.15807115,29.2661198 6.2628502,30.427421 L7.53607441,30.427421 C7.43129536,28.5183784 6.1683903,27.2030838 4.36253925,27.2030838 C2.12963419,27.2030838 0.793701303,29.0994259 0.793701303,31.3759889 C0.793701303,33.6517581 2.12963419,35.5481001 4.36253925,35.5481001 C6.04297295,35.5361934 7.36858669,34.5431738 7.52575526,32.8254324 L6.22077982,32.8254324 L6.22077982,32.8254324 Z" id="path3314" transform="translate(4.164888, 31.375592) scale(1, -1) translate(-4.164888, -31.375592) "></path>
                <path d="M8.29746884,35.2012974 L9.41352448,35.2012974 L9.41352448,34.0860355 L9.43575034,34.0860355 C9.57069305,34.699628 10.280333,35.3584659 11.011405,35.3584659 C11.282878,35.3584659 11.3559058,35.3354463 11.4598911,35.3243334 L11.4598911,34.0963546 C11.2924034,34.1185805 11.1153903,34.1527131 10.9479025,34.1527131 C10.1342773,34.1527131 9.4865523,33.4494234 9.4865523,32.1785805 L9.4865523,29.4336869 L8.29746884,29.4336869 L8.29746884,35.2012974 L8.29746884,35.2012974 Z" id="path3318" transform="translate(9.878680, 32.396076) scale(1, -1) translate(-9.878680, -32.396076) "></path>
                <path d="M15.4155383,32.9825216 C15.373468,33.7850339 14.8622732,34.5105494 14.0581734,34.5105494 C13.234229,34.5105494 12.6706447,33.8421861 12.6396873,32.9825216 L15.4155383,32.9825216 L15.4155383,32.9825216 Z M12.6396873,32.145083 C12.6396873,31.2417606 13.0984925,30.4384545 14.0899246,30.4384545 C14.7789262,30.4384545 15.1964549,30.7615232 15.4052192,31.3981354 L16.531594,31.3981354 C16.2712339,30.1368179 15.2694827,29.4343219 14.0899246,29.4343219 C12.3991718,29.4343219 11.4498101,30.6948457 11.4498101,32.4681517 C11.4498101,34.1088964 12.4515613,35.514682 14.0581734,35.514682 C15.7592454,35.514682 16.803067,33.8747311 16.6046218,32.145083 L12.6396873,32.145083 L12.6396873,32.145083 Z" id="path3322" transform="translate(14.039257, 32.474502) scale(1, -1) translate(-14.039257, -32.474502) "></path>
                <path d="M19.6737748,28.3971681 C20.7382347,28.3971681 21.1875146,29.4338457 21.1875146,30.438772 C21.1875146,31.7112025 20.6128174,32.469263 19.6944131,32.469263 C18.5775637,32.469263 18.1806733,31.4095658 18.1806733,30.3720944 C18.1806733,29.3790748 18.6402724,28.3971681 19.6737748,28.3971681 L19.6737748,28.3971681 Z M22.3345277,27.5494103 L21.2081529,27.5494103 L21.2081529,28.3304905 L21.1875146,28.3304905 C20.8739712,27.6724463 20.1960825,27.3930355 19.5174,27.3930355 C17.8155342,27.3930355 16.9915899,28.7432565 16.9915899,30.4721108 C16.9915899,32.5589602 18.1497159,33.4741894 19.329274,33.4741894 C20.0071627,33.4741894 20.758873,33.2066853 21.1240121,32.5708669 L21.1454442,32.5708669 L21.1454442,35.5149995 L22.3345277,35.5149995 L22.3345277,27.5494103 L22.3345277,27.5494103 Z" id="path3326" transform="translate(19.663059, 31.454018) scale(1, -1) translate(-19.663059, -31.454018) "></path>
                <path d="M23.3998607,33.1605666 L24.5889442,33.1605666 L24.5889442,27.3929562 L23.3998607,27.3929562 L23.3998607,33.1605666 L23.3998607,33.1605666 Z M23.3998607,35.3585453 L24.5889442,35.3585453 L24.5889442,34.1535862 L23.3998607,34.1535862 L23.3998607,35.3585453 L23.3998607,35.3585453 Z" id="path3328" transform="translate(23.994402, 31.375751) scale(1, -1) translate(-23.994402, -31.375751) "></path>
                <path d="M25.0799769,33.6843825 L25.9777428,33.6843825 L25.9777428,35.4140306 L27.1668263,35.4140306 L27.1668263,33.6843825 L28.2423991,33.6843825 L28.2423991,32.7366083 L27.1668263,32.7366083 L27.1668263,29.6575331 C27.1668263,29.132844 27.2088967,28.86534 27.7415235,28.86534 C27.9082175,28.86534 28.0757052,28.86534 28.2423991,28.9097917 L28.2423991,27.927885 C27.9820391,27.9056591 27.7304106,27.8612074 27.4700505,27.8612074 C26.2285775,27.8612074 25.9983811,28.3747835 25.9777428,29.3336706 L25.9777428,32.7366083 L25.0799769,32.7366083 L25.0799769,33.6843825 L25.0799769,33.6843825 Z" id="path3332" transform="translate(26.661188, 31.637619) scale(1, -1) translate(-26.661188, -31.637619) "></path>
                <path d="M31.3002805,35.5480208 L32.6044621,35.5480208 L32.6044621,30.9067851 C32.6044621,29.835975 32.6671708,28.5976771 34.3587174,28.5976771 C36.0494703,28.5976771 36.1113852,29.835975 36.1113852,30.9067851 L36.1113852,35.5480208 L37.4163606,35.5480208 L37.4163606,30.4487737 C37.4163606,28.4079635 36.1947321,27.392718 34.3587174,27.392718 C32.5211151,27.392718 31.3002805,28.4079635 31.3002805,30.4487737 L31.3002805,35.5480208 L31.3002805,35.5480208 Z" id="path3336" transform="translate(34.358321, 31.470369) scale(1, -1) translate(-34.358321, -31.470369) "></path>
                <path d="M38.3867575,35.2012974 L39.5139261,35.2012974 L39.5139261,34.3535396 L39.5345644,34.3313137 C39.8901781,34.9671321 40.5053581,35.3584659 41.2157918,35.3584659 C42.384237,35.3584659 43.1248344,34.688515 43.1248344,33.3946525 L43.1248344,29.4336869 L41.9357509,29.4336869 L41.9357509,33.0596771 C41.9143188,33.9629995 41.5801372,34.3535396 40.8808164,34.3535396 C40.0878295,34.3535396 39.5758409,33.6851763 39.5758409,32.8366247 L39.5758409,29.4336869 L38.3867575,29.4336869 L38.3867575,35.2012974 L38.3867575,35.2012974 Z" id="path3340" transform="translate(40.755796, 32.396076) scale(1, -1) translate(-40.755796, -32.396076) "></path>
                <path d="M44.1477002,33.1605666 L45.3367836,33.1605666 L45.3367836,27.3929562 L44.1477002,27.3929562 L44.1477002,33.1605666 L44.1477002,33.1605666 Z M44.1477002,35.3585453 L45.3367836,35.3585453 L45.3367836,34.1535862 L44.1477002,34.1535862 L44.1477002,35.3585453 L44.1477002,35.3585453 Z" id="path3342" transform="translate(44.742242, 31.375751) scale(1, -1) translate(-44.742242, -31.375751) "></path>
                <path d="M50.2739407,32.4790265 C50.2739407,33.4728399 49.8040225,34.5103113 48.7403564,34.5103113 C47.6758965,34.5103113 47.2059784,33.4728399 47.2059784,32.4790265 C47.2059784,31.4748939 47.6758965,30.4374226 48.7403564,30.4374226 C49.8040225,30.4374226 50.2739407,31.4748939 50.2739407,32.4790265 M46.0161011,32.4790265 C46.0161011,34.2420134 47.0075332,35.5144438 48.7403564,35.5144438 C50.4723859,35.5144438 51.4638179,34.2420134 51.4638179,32.4790265 C51.4638179,30.7049267 50.4723859,29.4340838 48.7403564,29.4340838 C47.0075332,29.4340838 46.0161011,30.7049267 46.0161011,32.4790265" id="path3346" transform="translate(48.739960, 32.474264) scale(1, -1) translate(-48.739960, -32.474264) "></path>
                <path d="M52.090349,35.2012974 L53.2175176,35.2012974 L53.2175176,34.3535396 L53.2381559,34.3313137 C53.5929759,34.9671321 54.2081559,35.3584659 54.9177958,35.3584659 C56.0878285,35.3584659 56.8292197,34.688515 56.8292197,33.3946525 L56.8292197,29.4336869 L55.6385487,29.4336869 L55.6385487,33.0596771 C55.6179104,33.9629995 55.2837287,34.3535396 54.5844079,34.3535396 C53.791421,34.3535396 53.2802263,33.6851763 53.2802263,32.8366247 L53.2802263,29.4336869 L52.090349,29.4336869 L52.090349,35.2012974 L52.090349,35.2012974 Z" id="path3350" transform="translate(54.459784, 32.396076) scale(1, -1) translate(-54.459784, -32.396076) "></path>
                <polygon id="path3354" transform="translate(4.113530, 17.344487) scale(1, -1) translate(-4.113530, -17.344487) " points="0.975318323 22.0726412 7.25174217 22.0726412 7.25174217 20.2461518 3.42016282 20.2461518 3.42016282 18.0410291 6.98265052 18.0410291 6.98265052 16.2161273 3.42016282 16.2161273 3.42016282 12.6163319 0.975318323 12.6163319"></polygon>
                <polygon id="path3358" transform="translate(11.265177, 17.344487) scale(1, -1) translate(-11.265177, -17.344487) " points="7.88724299 22.0726412 14.5454753 22.0726412 14.5454753 20.2596461 10.319387 20.2596461 10.319387 18.2902762 14.2994033 18.2902762 14.2994033 16.4780749 10.319387 16.4780749 10.319387 14.4563155 14.6431104 14.4563155 14.6431104 12.6163319 7.88724299 12.6163319"></polygon>
                <path d="M17.8991987,14.4152771 L18.9557208,14.4152771 C20.5893214,14.4287713 21.633143,15.1765127 21.633143,17.383223 C21.633143,20.2590904 19.6193215,20.2590904 18.8691987,20.2590904 L17.8991987,20.2725847 L17.8991987,14.4152771 L17.8991987,14.4152771 Z M15.3805326,22.0720855 L19.1279712,22.0720855 C20.1836995,22.0720855 21.5847224,21.9538122 22.505508,21.2838613 C23.8200088,20.3249742 24.1764163,18.7620201 24.1764163,17.3562345 C24.1764163,15.2558908 23.5501234,13.7064309 21.7561791,12.9571019 C20.8473002,12.5895815 19.7661709,12.5895815 19.1517846,12.5895815 L15.3805326,12.5895815 L15.3805326,22.0720855 L15.3805326,22.0720855 Z" id="path3362" transform="translate(19.778474, 17.330833) scale(1, -1) translate(-19.778474, -17.330833) "></path>
                <polygon id="path3366" transform="translate(28.168895, 17.344487) scale(1, -1) translate(-28.168895, -17.344487) " points="24.7901676 22.0726412 31.4483999 22.0726412 31.4483999 20.2596461 27.2231054 20.2596461 27.2231054 18.2902762 31.2031217 18.2902762 31.2031217 16.4780749 27.2231054 16.4780749 27.2231054 14.4563155 31.5476225 14.4563155 31.5476225 12.6163319 24.7901676 12.6163319"></polygon>
                <path d="M34.6675775,18.0011813 L35.5891569,18.0011813 C36.1297215,18.0011813 36.3996069,18.0011813 36.6083712,18.0797656 C37.1489359,18.2639227 37.2600652,18.8544955 37.2600652,19.156926 C37.2600652,20.3253711 36.3011781,20.3253711 35.5891569,20.3253711 L34.6675775,20.3253711 L34.6675775,18.0011813 L34.6675775,18.0011813 Z M32.1981258,22.0724824 L36.3011781,22.0724824 C37.8982649,22.0724824 38.5007444,21.9669096 39.0294023,21.389831 C39.2992878,21.1008948 39.6429948,20.5746183 39.6429948,19.5506412 C39.6429948,18.5131698 39.2500734,18.0670651 38.8317509,17.7908294 C38.2673729,17.4106085 37.7260144,17.3447247 37.4807362,17.3050356 L37.4807362,17.2534399 C39.200859,17.2002566 39.2992878,16.3858376 39.4953516,14.9284563 C39.5818737,14.2847001 39.7041159,13.2607231 39.913674,12.5899784 L37.2473647,12.5899784 C37.0997215,13.1686445 37.0378066,13.8909849 36.9528721,14.7315987 C36.8417428,15.8738491 36.8052289,16.2945528 35.6994924,16.2945528 L34.6675775,16.2945528 L34.6675775,12.5899784 L32.1981258,12.5899784 L32.1981258,22.0724824 L32.1981258,22.0724824 Z" id="path3370" transform="translate(36.055900, 17.331230) scale(1, -1) translate(-36.055900, -17.331230) "></path>
                <path d="M46.1291355,16.242322 L44.9860913,20.219957 L44.9495774,20.219957 L43.7208049,16.242322 L46.1291355,16.242322 L46.1291355,16.242322 Z M43.5858622,22.0726412 L46.5839718,22.0726412 L50.0845446,12.5901371 L47.3078998,12.5901371 L46.6935136,14.4952108 L43.1437264,14.4952108 L42.5420406,12.5901371 L40.0844956,12.5901371 L43.5858622,22.0726412 L43.5858622,22.0726412 Z" id="path3374" transform="translate(45.084520, 17.331389) scale(1, -1) translate(-45.084520, -17.331389) "></path>
                <polygon id="path3378" transform="translate(53.580196, 17.331230) scale(1, -1) translate(-53.580196, -17.331230) " points="50.3431584 22.0724824 52.8364235 22.0724824 52.8364235 14.455363 56.8172336 14.455363 56.8172336 12.5899784 50.3431584 12.5899784"></polygon>
                <polygon id="path3382" transform="translate(5.231650, 6.842847) scale(1, -1) translate(-5.231650, -6.842847) " points="0.975000811 11.5833057 4.36603188 11.5833057 7.36334774 4.51786387 7.33874053 11.5833057 9.48829862 11.5833057 9.48829862 2.10238926 6.17108915 2.10238926 3.11265219 9.46867398 3.13725939 2.10238926 0.975000811 2.10238926"></polygon>
                <path d="M16.1926496,5.7526691 L15.0496055,9.73189166 L15.0122978,9.73189166 L13.7851128,5.7526691 L16.1926496,5.7526691 L16.1926496,5.7526691 Z M13.6493763,11.583782 L16.6466922,11.583782 L20.1480588,2.10207175 L17.3714139,2.10207175 L16.7570277,4.0063516 L13.2064467,4.0063516 L12.604761,2.10207175 L10.1488035,2.10207175 L13.6493763,11.583782 L13.6493763,11.583782 Z" id="path3386" transform="translate(15.148431, 6.842927) scale(1, -1) translate(-15.148431, -6.842927) "></path>
                <polygon id="path3390" transform="translate(22.961138, 6.842847) scale(1, -1) translate(-22.961138, -6.842847) " points="18.3115678 11.5833057 21.0255039 11.5833057 23.0409131 4.71472148 25.165864 11.5833057 27.6107085 11.5833057 24.3792273 2.10238926 21.4446201 2.10238926"></polygon>
                <polygon id="path3394" transform="translate(32.179789, 6.842847) scale(1, -1) translate(-32.179789, -6.842847) " points="30.3683819 11.5833057 32.3091757 7.60408316 34.3110906 11.5833057 36.8416634 11.5833057 33.3783983 5.45055617 33.3783983 2.10238926 30.8954523 2.10238926 30.8954523 5.56962327 27.5179155 11.5833057"></polygon>
                <polygon id="path3396" transform="translate(28.894807, 24.418660) scale(1, -1) translate(-28.894807, -24.418660) " points="56.8148523 25.6648956 0.974762677 25.6648956 0.974762677 23.1724243 56.8148523 23.1724243"></polygon>
                <path d="M48.2176518,2.26320922 L48.0525455,2.26320922 C48.4375291,2.70058238 48.7582165,3.22209629 49.0011134,3.80234997 L49.5456469,3.80234997 C49.2067026,3.20463311 48.7542476,2.68232542 48.2176518,2.26320922 L48.2176518,2.26320922 Z M47.7136011,1.91394572 L47.7136011,1.91394572 L47.7120136,1.91315194 C47.7120136,1.91315194 47.7120136,1.91394572 47.7136011,1.91394572 L47.7136011,1.91394572 Z M42.3666944,1.91394572 L42.3666944,1.91394572 L42.3666944,1.91315194 L42.3666944,1.91394572 L42.3666944,1.91394572 Z M40.5338549,3.80234997 L41.0775946,3.80234997 C41.3196977,3.22209629 41.6427665,2.70058238 42.0285439,2.26320922 L41.8626437,2.26320922 C41.3252542,2.68232542 40.8720054,3.20463311 40.5338549,3.80234997 L40.5338549,3.80234997 Z M41.8602624,10.4240684 L42.0293377,10.4240684 C41.741989,10.0986183 41.4863917,9.72712897 41.2736584,9.31277546 L41.2696895,9.31277546 L41.1950742,9.15560688 L41.1204588,8.99843831 L41.1252215,8.99685074 C41.1085521,8.95954305 41.0910889,8.92223536 41.0760071,8.88492767 L40.5338549,8.88492767 C40.6251396,9.04447759 40.7211871,9.20164616 40.8275537,9.35167071 C41.1228401,9.76205532 41.4713098,10.121638 41.8602624,10.4240684 L41.8602624,10.4240684 Z M47.7136011,10.7733319 L47.7136011,10.7733319 L47.7120136,10.7733319 L47.7136011,10.7733319 L47.7136011,10.7733319 Z M49.5456469,8.88492767 L49.0011134,8.88492767 C48.7582165,9.46676891 48.4375291,9.98669525 48.0525455,10.4240684 L48.2176518,10.4240684 C48.7542476,10.0041584 49.2067026,9.48185074 49.5456469,8.88492767 L49.5456469,8.88492767 Z M49.4988139,6.16940396 L50.2100414,6.16940396 C50.1862279,5.45103244 50.0155651,4.76679349 49.7258351,4.15081968 L49.1360561,4.15081968 C49.3543458,4.77234996 49.4805569,5.45500134 49.4988139,6.16940396 L49.4988139,6.16940396 Z M47.4175209,4.15081968 C47.5389694,4.76917484 47.6096158,5.45103244 47.6191412,6.16940396 L49.1495504,6.16940396 C49.1304996,5.45103244 48.9955569,4.76758727 48.7669481,4.15081968 L47.4175209,4.15081968 L47.4175209,4.15081968 Z M46.6054833,1.91394572 L47.1785929,1.91394572 C46.8698123,1.67739908 46.5372181,1.4916544 46.183192,1.36226815 C46.3316289,1.51705538 46.4729219,1.70280006 46.6054833,1.91394572 L46.6054833,1.91394572 Z M43.4740185,1.91394572 C43.6049923,1.70280006 43.7462853,1.51705538 43.8971036,1.36226815 C43.5438712,1.4916544 43.208102,1.67739908 42.9017026,1.91394572 L43.4740185,1.91394572 L43.4740185,1.91394572 Z M40.9291576,6.16940396 L42.4603606,6.16940396 C42.4698859,5.45103244 42.5413262,4.76917484 42.6627746,4.15081968 L41.3125537,4.15081968 C41.0831511,4.76758727 40.9490021,5.45103244 40.9291576,6.16940396 L40.9291576,6.16940396 Z M40.5806879,6.51787368 L39.8718418,6.51787368 C39.8932738,7.2235447 40.0583802,7.90698987 40.3536666,8.53566417 L40.9426519,8.53566417 C40.7211871,7.9014334 40.5997386,7.21640068 40.5806879,6.51787368 L40.5806879,6.51787368 Z M42.6659498,8.53566417 C42.5413262,7.90222718 42.4706797,7.21640068 42.4603606,6.51787368 L40.9307452,6.51787368 C40.9497959,7.2195758 41.079976,7.90540231 41.3125537,8.53566417 L42.6659498,8.53566417 L42.6659498,8.53566417 Z M46.6054833,10.7733319 C46.4729219,10.9844776 46.3316289,11.1702223 46.183192,11.3250095 C46.5372181,11.1956232 46.8698123,11.0090848 47.1785929,10.7733319 L46.6054833,10.7733319 L46.6054833,10.7733319 Z M45.213192,6.51787368 L45.213192,8.53566417 L47.0547632,8.53566417 C47.1833556,7.91572146 47.257971,7.23227629 47.2690839,6.51787368 L45.213192,6.51787368 L45.213192,6.51787368 Z M45.213192,4.15081968 L45.213192,6.16940396 L47.2690839,6.16940396 C47.257971,5.45500134 47.1833556,4.76917484 47.0547632,4.15081968 L45.213192,4.15081968 L45.213192,4.15081968 Z M45.213192,2.26320922 L45.213192,3.80234997 L46.9745913,3.80234997 C46.8269481,3.20780823 46.6300905,2.68470677 46.3983065,2.26320922 L45.213192,2.26320922 L45.213192,2.26320922 Z M45.213192,1.91394572 L46.1816044,1.91394572 C45.893462,1.50356111 45.5632492,1.24161349 45.213192,1.17572969 L45.213192,1.91394572 L45.213192,1.91394572 Z M44.8647222,1.91394572 L44.8647222,1.17572969 C44.5162525,1.24161349 44.1860398,1.50356111 43.8971036,1.91394572 L44.8647222,1.91394572 L44.8647222,1.91394572 Z M44.8647222,3.80234997 L44.8647222,2.26320922 L43.6811953,2.26320922 C43.4502051,2.68470677 43.2525537,3.20780823 43.1033229,3.80234997 L44.8647222,3.80234997 L44.8647222,3.80234997 Z M44.8647222,6.16940396 L44.8647222,4.15081968 L43.0247386,4.15081968 C42.8961462,4.76917484 42.8199432,5.45500134 42.8104178,6.16940396 L44.8647222,6.16940396 L44.8647222,6.16940396 Z M44.8647222,8.53566417 L44.8647222,6.51787368 L42.8104178,6.51787368 C42.8199432,7.21798824 42.892971,7.90381475 43.0223573,8.53566417 L44.8647222,8.53566417 L44.8647222,8.53566417 Z M46.3983065,10.4240684 C46.6300905,10.0017771 46.8269481,9.47867562 46.9745913,8.88492767 L45.213192,8.88492767 L45.213192,10.4240684 L46.3983065,10.4240684 L46.3983065,10.4240684 Z M45.213192,10.7733319 L45.213192,11.5115479 C45.5632492,11.4456641 45.893462,11.1845103 46.1816044,10.7733319 L45.213192,10.7733319 L45.213192,10.7733319 Z M44.8647222,11.5099604 L44.8647222,10.7733319 L43.8939285,10.7733319 C44.1908025,11.1876854 44.521809,11.4456641 44.8647222,11.5099604 L44.8647222,11.5099604 Z M43.4756061,10.7733319 L42.9120218,10.7733319 C43.2168336,11.0059096 43.5454588,11.189273 43.8899596,11.3170717 C43.7431101,11.1654596 43.6049923,10.98289 43.4756061,10.7733319 L43.4756061,10.7733319 Z M43.131899,9.00955124 C43.2771609,9.56202259 43.4636993,10.0367034 43.6772264,10.4240684 L44.8647222,10.4240684 L44.8647222,8.88492767 L43.1001478,8.88492767 C43.1112607,8.92699804 43.1199923,8.9698622 43.131899,9.00955124 L43.131899,9.00955124 Z M49.1495504,6.51787368 L47.6191412,6.51787368 C47.6096158,7.23703897 47.5389694,7.91730902 47.4175209,8.53566417 L48.7669481,8.53566417 C48.9955569,7.91969036 49.1304996,7.23703897 49.1495504,6.51787368 L49.1495504,6.51787368 Z M50.2100414,6.51787368 L49.4988139,6.51787368 C49.4805569,7.23227629 49.3543458,7.9141339 49.1360561,8.53566417 L49.7258351,8.53566417 C50.0155651,7.91969036 50.1862279,7.23703897 50.2100414,6.51787368 L50.2100414,6.51787368 Z M48.6232738,8.88492767 L47.3405242,8.88492767 C47.2039939,9.46756269 47.0206306,9.98748903 46.7999596,10.4240684 L47.5731019,10.4240684 C47.9985684,10.0041584 48.3573572,9.48105696 48.6232738,8.88492767 L48.6232738,8.88492767 Z M41.5102051,9.00716989 C41.7737403,9.56043503 42.1142722,10.0367034 42.5103687,10.4240684 L43.2835111,10.4240684 C43.1144358,10.0898867 42.9659989,9.70093421 42.8413753,9.2659424 L42.8397877,9.26673618 L42.7945422,9.09924845 L42.7500905,8.93017317 L42.7540594,8.93017317 C42.7500905,8.91429755 42.7453278,8.9000095 42.7421527,8.88492767 L41.4554342,8.88492767 C41.4736912,8.92541048 41.4911544,8.96668708 41.5102051,9.00716989 L41.5102051,9.00716989 Z M39.8702542,6.16940396 L40.5798941,6.16940396 C40.5989449,5.45500134 40.7259498,4.77234996 40.9426519,4.15081968 L40.3536666,4.15081968 C40.0647305,4.76679349 39.8932738,5.45103244 39.8702542,6.16940396 L39.8702542,6.16940396 Z M41.4546404,3.80234997 L42.73739,3.80234997 C42.8747141,3.21971494 43.0588712,2.69899482 43.280336,2.26320922 L42.5040185,2.26320922 C42.0817272,2.6831192 41.7229383,3.20463311 41.4546404,3.80234997 L41.4546404,3.80234997 Z M47.5731019,2.26320922 L46.7999596,2.26320922 C47.0206306,2.69899482 47.2039939,3.21971494 47.3405242,3.80234997 L48.6232738,3.80234997 C48.3573572,3.20463311 47.9985684,2.6831192 47.5731019,2.26320922 L47.5731019,2.26320922 Z M50.56248,6.34403571 C50.56248,9.22387202 48.3470381,11.5948949 45.5299105,11.844142 C45.368773,11.8663679 45.2060479,11.8782746 45.039354,11.8782746 C44.883773,11.8782746 44.7297795,11.8655741 44.5773736,11.8457296 C43.0310889,11.7147558 41.5991085,10.9328818 40.6497468,9.6929964 L40.6465717,9.69696531 L40.544174,9.55567234 L40.4433639,9.4135856 L40.4481265,9.40882292 C39.8408843,8.49994404 39.516228,7.44500951 39.516228,6.34403571 C39.516228,3.46340561 41.7324637,1.09158894 44.5495913,0.843135585 C44.7107288,0.820909726 44.8742476,0.809003015 45.039354,0.809003015 C45.2060479,0.809003015 45.368773,0.820909726 45.5299105,0.843135585 C48.3470381,1.09158894 50.56248,3.46340561 50.56248,6.34403571 L50.56248,6.34403571 Z" id="path3400" transform="translate(45.039354, 6.343639) scale(1, -1) translate(-45.039354, -6.343639) "></path>
                <path d="M58.5337843,24.3306297 L58.7060347,24.3306297 C58.9013048,24.3306297 59.0679987,24.4020699 59.0679987,24.5854333 C59.0679987,24.7156133 58.9719513,24.8473809 58.7060347,24.8473809 C58.6282442,24.8473809 58.5750609,24.8410307 58.5337843,24.8354742 L58.5337843,24.3306297 L58.5337843,24.3306297 Z M58.5337843,23.5058916 L58.2956501,23.5058916 L58.2956501,24.9950241 C58.4210675,25.0132811 58.5393408,25.0307442 58.7171477,25.0307442 C58.9425814,25.0307442 59.0910184,24.9831174 59.1807156,24.9180274 C59.269619,24.8529374 59.3164521,24.7513334 59.3164521,24.6092467 C59.3164521,24.4139767 59.1862721,24.2949095 59.0259284,24.2480765 L59.0259284,24.235376 C59.1561084,24.2123564 59.2450118,24.094083 59.2751755,23.8742058 C59.3108956,23.6424218 59.3466158,23.5535184 59.3704292,23.5058916 L59.1219758,23.5058916 C59.0846681,23.5535184 59.0497418,23.6900487 59.0203719,23.8853187 C58.9846518,24.0758261 58.8893981,24.1464726 58.6996845,24.1464726 L58.5337843,24.1464726 L58.5337843,23.5058916 L58.5337843,23.5058916 Z M58.7830315,25.4101714 C58.1956338,25.4101714 57.7146027,24.9061207 57.7146027,24.2830028 C57.7146027,23.6479783 58.1956338,23.1502778 58.7885879,23.1502778 C59.3815421,23.1447213 59.8570167,23.6479783 59.8570167,24.2766526 C59.8570167,24.9061207 59.3815421,25.4101714 58.7885879,25.4101714 L58.7830315,25.4101714 L58.7830315,25.4101714 Z M58.7885879,25.6181419 C59.5188662,25.6181419 60.0999136,25.0251878 60.0999136,24.2830028 C60.0999136,23.529705 59.5188662,22.9423073 58.7830315,22.9423073 C58.053547,22.9423073 57.4597991,23.529705 57.4597991,24.2830028 C57.4597991,25.0251878 58.053547,25.6181419 58.7830315,25.6181419 L58.7885879,25.6181419 L58.7885879,25.6181419 Z" id="path3404" transform="translate(58.779856, 24.280225) scale(1, -1) translate(-58.779856, -24.280225) "></path>
            </g>
        </g>
    </g>
</svg>