<?xml version="1.0" encoding="UTF-8"?>
<svg width="126px" height="36px" viewBox="0 0 126 36" version="1.1" xmlns="http://www.w3.org/2000/svg" xmlns:xlink="http://www.w3.org/1999/xlink">
    <!-- Generator: Sketch 46.2 (44496) - http://www.bohemiancoding.com/sketch -->
    <title>PNC Bank</title>
    
    <defs></defs>
    <g id="Page-1" stroke="none" stroke-width="1" fill="none" fill-rule="evenodd">
        <g id="Artboard-Copy">
            <g id="PNC-Bank">
                <g id="svg2">
                    <g id="g4" transform="translate(0.153892, 0.602520)" fill="#F77726">
                        <path d="M25.8438566,19.6862264 L21.9553811,19.6862264 C22.1172453,19.2816 22.0370264,18.7151094 21.7126189,18.0663623 L19.5249736,14.4213962 L15.8793283,8.02032453 C15.8793283,8.02032453 14.5022943,5.4279917 12.4771245,3.88907321 C13.7732604,4.37529057 30.1381811,13.9345132 30.1381811,13.9345132 C32.8120302,15.5549887 35.1608604,19.6052604 25.8438566,19.6862264 L25.8438566,19.6862264 Z M13.5298189,29.9757057 C10.8559698,31.5146038 6.07605962,31.5146038 10.6941057,23.4140604 C11.5040377,22.0356679 12.6383094,20.0112453 12.6383094,20.0112453 C12.962717,20.4158717 13.4489208,20.658634 14.1778868,20.658634 L18.4716,20.658634 L25.8438566,20.658634 C25.8438566,20.658634 28.7611472,20.7395321 31.1106566,19.768483 C30.057283,20.5777358 13.5298189,29.9757057 13.5298189,29.9757057 L13.5298189,29.9757057 Z M7.94003774,7.61501887 C7.94003774,4.53714113 10.3704453,0.404628453 15.0693962,8.42556226 C15.8793283,9.88424151 17.0136679,11.8284453 17.0136679,11.8284453 C16.5273962,11.9087321 16.1221585,12.2337509 15.7174642,12.8818189 L13.6107849,16.6083623 L9.88424151,22.9271774 C9.88424151,22.9271774 8.34466415,25.4385509 8.02093585,28.0321811 C7.85839245,26.5728226 7.94003774,7.61501887 7.94003774,7.61501887 L7.94003774,7.61501887 Z M17.2564302,0 C7.69659623,0 0,7.69659623 0,17.2564302 C0,26.8156528 7.69659623,34.5937585 17.2564302,34.5937585 C26.8169434,34.5937585 34.5944377,26.8156528 34.5944377,17.2564302 C34.5944377,7.69659623 26.8169434,0 17.2564302,0 L17.2564302,0 Z" id="path6"></path>
                    </g>
                    <g id="g8" transform="translate(42.444177, 4.329082)" fill="#094D94">
                        <path d="M5.10432453,27.383366 L9.47893585,27.383366 L9.47893585,15.2312604 L11.8284453,15.2312604 C17.9854642,15.2312604 26.1688075,14.7443774 26.1688075,7.6965283 C26.1688075,0.567149434 18.4723472,0 12.3146491,0 L0,0 L0,0.729 C4.37529057,1.21521736 5.10432453,1.86394415 5.10432453,4.37463849 L5.10432453,27.383366 L5.10432453,27.383366 Z M9.47893585,4.37463849 C9.47893585,1.94421057 9.72169811,1.62050943 13.8542264,1.62050943 C18.3907019,1.62050943 21.1448377,3.64567245 21.1448377,7.6965283 C21.1448377,12.9626491 16.4464981,13.691683 11.6665811,13.691683 L9.47893585,13.691683 L9.47893585,4.37463849 L9.47893585,4.37463849 Z" id="path10"></path>
                    </g>
                    <g id="g12" transform="translate(68.207502, 4.329082)" fill="#094D94">
                        <path d="M5.1045283,4.86084226 C5.1045283,1.53958415 4.37501887,1.29680151 0,0.729 L0,0 L10.2076981,0 L26.1679245,22.2797208 L26.2487547,22.2797208 L26.2487547,0 L28.9229434,0 L28.9229434,27.383366 L25.0335849,27.383366 L7.85818868,3.56538566 L7.77735849,3.56538566 L7.77735849,27.383366 L5.1045283,27.383366 L5.1045283,4.86084226 L5.1045283,4.86084226 Z" id="path14"></path>
                    </g>
                    <g id="g16" transform="translate(101.504785, 3.924454)" fill="#094D94">
                        <path d="M24.305434,27.0583472 C21.8750943,27.7070943 19.5255849,28.1926189 14.7450566,28.1926189 C5.18535849,28.1926189 0,21.4691774 0,13.2048 C0,5.83263849 3.07901887,0 13.5298868,0 C21.2264151,0 23.981434,3.23968075 24.305434,5.99450264 L19.3632453,5.99450264 C19.1207547,4.69836679 18.2289057,1.86261962 13.2058868,1.86261962 C7.77803774,1.86261962 4.94286792,5.91421585 4.94286792,12.1521057 C4.94286792,17.9044302 6.4005283,26.4109585 17.5809057,26.4109585 C20.5784151,26.4109585 23.7382642,25.5194491 24.305434,25.3575849 L24.305434,27.0583472 L24.305434,27.0583472 Z" id="path18"></path>
                    </g>
                    <g id="g20" transform="translate(31.069467, 32.180135)" fill="#F77726">
                        <path d="M0.289901887,1.07191698 L0.587071698,1.07191698 C0.897486792,1.07191698 1.09453585,0.90210566 1.09453585,0.644739623 C1.09453585,0.35490566 0.883562264,0.22754717 0.577154717,0.223539623 C0.436483019,0.223539623 0.336973585,0.237464151 0.289901887,0.250709434 L0.289901887,1.07191698 L0.289901887,1.07191698 Z M0,0.0477509434 C0.146649057,0.0172528302 0.356875472,0 0.55725283,0 C0.867667925,0 1.06729811,0.0570566038 1.20796981,0.184415094 C1.32140377,0.283924528 1.38504906,0.437773585 1.38504906,0.610913208 C1.38504906,0.908762264 1.19798491,1.1057434 0.9612,1.18603019 L0.9612,1.19594717 C1.13433962,1.25565283 1.23778868,1.41622642 1.29083774,1.64968302 C1.36446792,1.96342642 1.41819623,2.18037736 1.46533585,2.26725283 L1.16415849,2.26725283 C1.12700377,2.20089057 1.07796226,2.00988679 1.01424906,1.72996981 C0.947275472,1.41887547 0.82650566,1.30279245 0.563230189,1.2921283 L0.289901887,1.2921283 L0.289901887,2.26725283 L0,2.26725283 L0,0.0477509434 L0,0.0477509434 Z" id="path22"></path>
                    </g>
                    <g id="g24" transform="translate(29.863603, 31.459728)" fill="#F77726">
                        <path d="M0.278558491,1.86663396 C0.280528302,2.74489811 0.990950943,3.45396226 1.86724528,3.45532075 C2.74550943,3.45396226 3.45321509,2.74489811 3.45586415,1.86663396 C3.45321509,0.989728302 2.74550943,0.281275472 1.86724528,0.27930566 C0.990950943,0.281275472 0.280528302,0.989728302 0.278558491,1.86663396 L0.278558491,1.86663396 Z M0,1.86663396 C0,0.835811321 0.835132075,0 1.86724528,0 C2.89867925,0 3.73646038,0.835811321 3.73646038,1.86663396 C3.73646038,2.89942642 2.89867925,3.7365283 1.86724528,3.7365283 C0.835132075,3.7365283 0,2.89942642 0,1.86663396 L0,1.86663396 Z" id="path26"></path>
                    </g>
                </g>
            </g>
        </g>
    </g>
</svg>