<?xml version="1.0" encoding="UTF-8"?>
<svg width="144px" height="36px" viewBox="0 0 144 36" version="1.1" xmlns="http://www.w3.org/2000/svg" xmlns:xlink="http://www.w3.org/1999/xlink">
    <!-- Generator: Sketch 46.2 (44496) - http://www.bohemiancoding.com/sketch -->
    <title>U.S. Bank</title>
    
    <defs></defs>
    <g id="Page-1" stroke="none" stroke-width="1" fill="none" fill-rule="evenodd">
        <g id="Artboard-Copy">
            <g id="U.S.-Bank">
                <polygon id="Shape" fill="#DE162B" points="0 0 0.0363636364 27.8909091 23.6363636 35.9272727 47.2363636 27.8909091 47.2363636 0"></polygon>
                <path d="M23.6,27.0181818 L16.4,27.0181818 L16.4,24.5090909 L16.3272727,24.5090909 C14.9090909,26.4727273 12.9090909,27.4909091 9.92727273,27.4909091 C6.4,27.4909091 3.2,25.3454545 3.2,20.8363636 L3.2,7.38181818 L10.6909091,7.38181818 L10.6909091,17.6727273 C10.6909091,19.9272727 10.9454545,21.5272727 13.1636364,21.5272727 C14.4363636,21.5272727 16.1454545,20.8727273 16.1454545,17.7454545 L16.1454545,7.38181818 L23.6363636,7.38181818 L23.6363636,27.0181818 L23.6,27.0181818 Z" id="Shape" fill="#FFFFFF"></path>
                <path d="M37.5636364,13.0909091 C37.5272727,12.4363636 37.2,11.9636364 36.6909091,11.6 C36.2545455,11.2363636 35.6363636,11.0181818 35.0181818,11.0181818 C33.9636364,11.0181818 32.7636364,11.2363636 32.7636364,12.5454545 C32.7636364,13.1272727 33.2363636,13.3818182 33.6363636,13.5636364 C34.8727273,14.1090909 37.7090909,14.2545455 40.2181818,15.0909091 C42.7272727,15.8909091 44.9090909,17.3454545 44.9090909,20.5818182 C44.9090909,26.0363636 39.6727273,27.4909091 34.9454545,27.4909091 C30.3272727,27.4909091 25.2727273,25.6363636 25.1636364,20.5818182 L32.2909091,20.5818182 C32.3272727,21.2727273 32.6181818,21.8181818 33.2,22.3272727 C33.5636364,22.6545455 34.2909091,22.9090909 35.2,22.9090909 C36.1818182,22.9090909 37.7454545,22.5454545 37.7454545,21.3818182 C37.7454545,20.2545455 37.0909091,19.8909091 33.6363636,19.3090909 C27.9272727,18.3272727 25.6363636,16.5090909 25.6363636,13.1636364 C25.5636364,8.18181818 30.9090909,6.90909091 34.8363636,6.90909091 C39.0545455,6.90909091 44.1818182,8.07272727 44.3636364,13.0909091 L37.5636364,13.0909091 L37.5636364,13.0909091 Z" id="Shape" fill="#FFFFFF"></path>
                <path d="M49.9272727,0 L57.4181818,0 L57.4181818,9.52727273 L57.4909091,9.52727273 C58.6181818,7.85454545 60.6181818,6.87272727 62.8727273,6.87272727 C69.4545455,6.87272727 71.2363636,12.4727273 71.2363636,17.0909091 C71.2363636,22 68.5454545,27.4909091 62.9818182,27.4909091 C59.3090909,27.4909091 58.1818182,26.1090909 57.2363636,24.8363636 L57.1636364,24.8363636 L57.1636364,26.9818182 L49.9272727,26.9818182 L49.9272727,0 L49.9272727,0 Z M60.4363636,12.3272727 C57.7454545,12.3272727 57.1636364,14.8727273 57.1636364,17.1636364 C57.1636364,19.4909091 57.7818182,22.0363636 60.4363636,22.0363636 C63.1272727,22.0363636 63.7090909,19.4909091 63.7090909,17.1636364 C63.7090909,14.8727273 63.0909091,12.3272727 60.4363636,12.3272727 L60.4363636,12.3272727 Z" id="Shape" fill="#001970"></path>
                <path d="M92.0727273,22.6181818 C92.0727273,24.1090909 92.1454545,25.7454545 92.9818182,27.0181818 L85.3454545,27.0181818 C85.1636364,26.4727273 85.0545455,25.7090909 85.0909091,25.1636364 L85.0181818,25.1636364 C83.4181818,26.9818182 81.1272727,27.4909091 78.6909091,27.4909091 C74.9090909,27.4909091 71.7818182,25.6727273 71.7818182,21.5636364 C71.7818182,15.3818182 79.0545455,15.6 82.8727273,14.8727273 C83.8909091,14.6909091 84.9090909,14.4 84.9090909,13.1272727 C84.9090909,11.8181818 83.6727273,11.3090909 82.4363636,11.3090909 C80.1454545,11.3090909 79.6727273,12.4727273 79.6363636,13.3090909 L72.6909091,13.3090909 C72.9090909,7.78181818 78.1454545,6.87272727 82.7636364,6.87272727 C92.1454545,6.87272727 92.0727273,10.7636364 92.0727273,14.5454545 L92.0727273,22.6181818 L92.0727273,22.6181818 Z M84.8727273,18.1818182 C83.9636364,18.6181818 82.9454545,18.9090909 81.9272727,19.1272727 C80.2545455,19.4909091 79.3818182,19.9272727 79.3818182,21.2363636 C79.3818182,22.1454545 80.3636364,23.0545455 81.7090909,23.0545455 C83.4181818,23.0545455 84.7272727,22.0363636 84.8363636,20 L84.8363636,18.1818182 L84.8727273,18.1818182 Z" id="Shape" fill="#001970"></path>
                <path d="M94.7272727,7.38181818 L101.963636,7.38181818 L101.963636,9.89090909 L102.036364,9.89090909 C103.454545,7.92727273 105.454545,6.90909091 108.436364,6.90909091 C111.963636,6.90909091 115.163636,9.05454545 115.163636,13.5636364 L115.163636,27.0181818 L107.672727,27.0181818 L107.672727,16.7272727 C107.672727,14.4727273 107.418182,12.8727273 105.2,12.8727273 C103.927273,12.8727273 102.218182,13.5272727 102.218182,16.6545455 L102.218182,27.0181818 L94.7272727,27.0181818 L94.7272727,7.38181818 L94.7272727,7.38181818 Z" id="Shape" fill="#001970"></path>
                <polygon id="Shape" fill="#001970" points="117.818182 0 125.272727 0 125.272727 13.0545455 130.036364 7.38181818 138.509091 7.38181818 131.527273 14.8 139.6 27.0181818 130.618182 27.0181818 126.618182 19.8909091 125.272727 21.3454545 125.272727 27.0181818 117.818182 27.0181818"></polygon>
                <path d="M142.945455,24.3272727 C143.236364,24.6181818 143.381818,24.9454545 143.381818,25.3454545 C143.381818,25.7454545 143.236364,26.1090909 142.945455,26.4 C142.654545,26.6909091 142.327273,26.8363636 141.927273,26.8363636 C141.527273,26.8363636 141.163636,26.6909091 140.909091,26.4 C140.618182,26.1090909 140.472727,25.7818182 140.472727,25.3454545 C140.472727,24.9454545 140.618182,24.5818182 140.909091,24.3272727 C141.2,24.0363636 141.527273,23.8909091 141.927273,23.8909091 C142.327273,23.8909091 142.654545,24.0363636 142.945455,24.3272727 L142.945455,24.3272727 Z M143.090909,24.1818182 C142.763636,23.8545455 142.363636,23.6727273 141.890909,23.6727273 C141.418182,23.6727273 141.018182,23.8545455 140.690909,24.1818182 C140.363636,24.5090909 140.181818,24.9090909 140.181818,25.3818182 C140.181818,25.8545455 140.363636,26.2545455 140.690909,26.5818182 C141.018182,26.9090909 141.418182,27.0909091 141.890909,27.0909091 C142.363636,27.0909091 142.763636,26.9090909 143.090909,26.5818182 C143.418182,26.2545455 143.6,25.8545455 143.6,25.3818182 C143.6,24.9090909 143.454545,24.5090909 143.090909,24.1818182 L143.090909,24.1818182 Z M142.145455,25.2727273 C142.072727,25.3090909 141.963636,25.3090909 141.818182,25.3090909 L141.527273,25.3090909 L141.527273,24.6181818 L141.818182,24.6181818 C142,24.6181818 142.109091,24.6545455 142.218182,24.6909091 C142.290909,24.7272727 142.327273,24.8363636 142.327273,24.9454545 C142.363636,25.1272727 142.290909,25.2363636 142.145455,25.2727273 L142.145455,25.2727273 Z M141.236364,26.2909091 L141.563636,26.2909091 L141.563636,25.5636364 L141.818182,25.5636364 C142,25.5636364 142.109091,25.6 142.181818,25.6363636 C142.290909,25.7090909 142.363636,25.8545455 142.363636,26.0727273 L142.363636,26.1818182 L142.363636,26.2545455 L142.363636,26.2909091 L142.363636,26.3272727 L142.654545,26.3272727 L142.654545,26.2909091 L142.654545,26.1818182 L142.654545,26.0363636 L142.654545,25.8909091 C142.654545,25.7818182 142.618182,25.7090909 142.545455,25.6 C142.472727,25.4909091 142.363636,25.4545455 142.218182,25.4181818 C142.327273,25.4181818 142.436364,25.3818182 142.472727,25.3090909 C142.581818,25.2363636 142.654545,25.0909091 142.654545,24.9454545 C142.654545,24.7272727 142.545455,24.5454545 142.363636,24.4727273 C142.254545,24.4363636 142.072727,24.4 141.854545,24.4 L141.2,24.4 L141.2,26.2909091 L141.236364,26.2909091 Z" id="Shape" fill="#001970"></path>
            </g>
        </g>
    </g>
</svg>